<?xml version="1.0" encoding="UTF-8" standalone="no"?>
<svg
   width="100%"
   height="100%"
   viewBox="0 0 3508 2481"
   version="1.1"
   xml:space="preserve"
   style="fill-rule:evenodd;clip-rule:evenodd;stroke-linecap:round;stroke-linejoin:round;stroke-miterlimit:1.5;"
   id="svg62"
   sodipodi:docname="figure-1.svg"
   inkscape:version="1.3.2 (091e20e, 2023-11-25)"
   xmlns:inkscape="http://www.inkscape.org/namespaces/inkscape"
   xmlns:sodipodi="http://sodipodi.sourceforge.net/DTD/sodipodi-0.dtd"
   xmlns="http://www.w3.org/2000/svg"
   xmlns:svg="http://www.w3.org/2000/svg"><defs
   id="defs62" /><sodipodi:namedview
   id="namedview62"
   pagecolor="#ffffff"
   bordercolor="#000000"
   borderopacity="0.25"
   inkscape:showpageshadow="2"
   inkscape:pageopacity="0.0"
   inkscape:pagecheckerboard="0"
   inkscape:deskcolor="#d1d1d1"
   inkscape:zoom="0.18655163"
   inkscape:cx="1562.5701"
   inkscape:cy="380.59168"
   inkscape:window-width="1344"
   inkscape:window-height="773"
   inkscape:window-x="87"
   inkscape:window-y="49"
   inkscape:window-maximized="0"
   inkscape:current-layer="svg62" />
    
    
    
    
    
    
    
    
    
    
    
    
    
    
    
    
    
    
    
    
    
<rect
   style="clip-rule:evenodd;fill:#ffffff;fill-opacity:1;fill-rule:evenodd;stroke:none;stroke-width:0.533447;stroke-linecap:round;stroke-linejoin:round;stroke-miterlimit:1.5"
   id="rect62"
   width="2443.5066"
   height="681.72272"
   x="263.43579"
   y="323.26749" /><g
   transform="matrix(1.13018,0,0,0.663743,1036.9007,-82.690123)"
   id="g2"
   style="clip-rule:evenodd;fill-rule:evenodd;stroke-linecap:round;stroke-linejoin:round;stroke-miterlimit:1.5">
        <path
   d="M 723,756.135 C 723,730.672 710.859,710 695.905,710 H 74.095 C 59.141,710 47,730.672 47,756.135 v 249.735 c 0,25.46 12.141,46.13 27.095,46.13 h 621.81 c 14.954,0 27.095,-20.67 27.095,-46.13 z"
   style="fill:#b9feff;fill-opacity:0.45;stroke:#231f20;stroke-width:4.5px;stroke-dasharray:8.99, 8.99, 0, 0"
   id="path1" />
    </g><g
   transform="translate(1939.0187,-92.432813)"
   id="g4"
   style="clip-rule:evenodd;fill-rule:evenodd;stroke-linecap:round;stroke-linejoin:round;stroke-miterlimit:1.5">
        <path
   d="M 723,756.135 C 723,730.672 702.328,710 676.865,710 H 93.135 C 67.672,710 47,730.672 47,756.135 v 249.735 c 0,25.46 20.672,46.13 46.135,46.13 h 583.73 c 25.463,0 46.135,-20.67 46.135,-46.13 z"
   style="fill:#b9feff;fill-opacity:0.45;stroke:#231f20;stroke-width:4.17px;stroke-dasharray:8.33, 8.33, 0, 0"
   id="path3" />
    </g><path
   d="m 956.0187,663.70218 c 0,-25.463 -20.672,-46.135 -46.135,-46.135 h -583.73 c -25.463,0 -46.135,20.672 -46.135,46.135 v 249.735 c 0,25.46 20.672,46.13 46.135,46.13 h 583.73 c 25.463,0 46.135,-20.67 46.135,-46.13 z"
   style="clip-rule:evenodd;fill:#b9feff;fill-opacity:0.45;fill-rule:evenodd;stroke:#231f20;stroke-width:4.17px;stroke-linecap:round;stroke-linejoin:round;stroke-miterlimit:1.5;stroke-dasharray:8.33, 8.33, 0, 0"
   id="path4" /><g
   transform="matrix(5.30021,0,0,5.30021,-3084.5013,-520.57581)"
   id="g26"
   style="clip-rule:evenodd;fill-rule:evenodd;stroke-linecap:round;stroke-linejoin:round;stroke-miterlimit:1.5">
        <g
   transform="translate(641.688,219.637)"
   id="g5">
            <text
   x="98.878998"
   y="35.032001"
   style="font-size:10px;font-family:Helvetica;stroke:#231f20;stroke-width:0.28px;stroke-linecap:butt;stroke-miterlimit:2"
   id="text4">OH</text>
        </g>
        <g
   transform="translate(641.688,219.637)"
   id="g6">
            <text
   x="86.410004"
   y="13.434"
   style="font-size:10px;font-family:Helvetica;stroke:#231f20;stroke-width:0.28px;stroke-linecap:butt;stroke-miterlimit:2"
   id="text5">O</text>
        </g>
        <g
   transform="translate(641.688,183.901)"
   id="g7">
            <path
   d="m 15.483,45.164 v 0.347 L 15.182,45.684 2.863,38.572 3.164,38.051 Z"
   style="fill-rule:nonzero;stroke:#231f20;stroke-width:0.28px;stroke-linecap:butt;stroke-miterlimit:2"
   id="path5" />
        </g>
        <g
   transform="translate(641.688,183.814)"
   id="g8">
            <path
   d="m 27.952,38.051 v 0.695 l -12.169,7.025 -0.3,-0.173 V 45.25 Z"
   style="fill-rule:nonzero;stroke:#231f20;stroke-width:0.28px;stroke-linecap:butt;stroke-miterlimit:2"
   id="path6" />
        </g>
        <g
   transform="translate(641.688,183.814)"
   id="g9">
            <path
   d="m 40.421,45.25 v 0.348 l -0.3,0.173 -12.169,-7.025 v -0.695 z"
   style="fill-rule:nonzero;stroke:#231f20;stroke-width:0.28px;stroke-linecap:butt;stroke-miterlimit:2"
   id="path7" />
        </g>
        <g
   transform="translate(641.688,205.759)"
   id="g10">
            <path
   d="m 40.722,37.877 -0.601,0.348 V 23.826 l 0.3,-0.173 0.301,0.173 z"
   style="fill-rule:nonzero;stroke:#231f20;stroke-width:0.28px;stroke-linecap:butt;stroke-miterlimit:2"
   id="path8" />
        </g>
        <g
   transform="translate(641.688,205.586)"
   id="g11">
            <rect
   x="42.712002"
   y="25.323"
   width="0.602"
   height="11.406"
   style="stroke:#231f20;stroke-width:0.28px;stroke-linecap:butt;stroke-miterlimit:2"
   id="rect9" />
        </g>
        <g
   transform="matrix(0,1,1,0,668.053,200.991)"
   id="g12">
            <path
   d="m 49.671,26.525 h 0.695 l -7.373,-12.77 -0.347,0.601 z"
   style="fill-rule:nonzero;stroke:#231f20;stroke-width:0.28px;stroke-linecap:butt;stroke-miterlimit:2"
   id="path10" />
        </g>
        <g
   transform="translate(641.688,227.357)"
   id="g13">
            <path
   d="m 65.06,16.28 0.3,0.173 v 0.348 L 52.891,24 v -0.695 z"
   style="fill-rule:nonzero;stroke:#231f20;stroke-width:0.28px;stroke-linecap:butt;stroke-miterlimit:2"
   id="path11" />
        </g>
        <g
   transform="matrix(0.499997,0.866027,0.866027,-0.499997,651.142,206.319)"
   id="g14">
            <rect
   x="57.528999"
   y="16.768"
   width="0.602"
   height="11.406"
   style="stroke:#231f20;stroke-width:0.28px;stroke-linecap:butt;stroke-miterlimit:2"
   id="rect12" />
        </g>
        <g
   transform="translate(641.688,227.183)"
   id="g15">
            <path
   d="m 77.83,23.479 v 0.347 L 77.529,24 65.36,16.974 v -0.347 l 0.301,-0.174 z"
   style="fill-rule:nonzero;stroke:#231f20;stroke-width:0.28px;stroke-linecap:butt;stroke-miterlimit:2"
   id="path13" />
        </g>
        <g
   transform="translate(641.688,227.01)"
   id="g16">
            <path
   d="m 90.299,16.453 v 0.695 L 78.13,24.174 77.83,24 v -0.347 z"
   style="fill-rule:nonzero;stroke:#231f20;stroke-width:0.28px;stroke-linecap:butt;stroke-miterlimit:2"
   id="path14" />
        </g>
        <g
   transform="matrix(-0.500004,0.866023,0.866023,0.500004,764.481,153.566)"
   id="g17">
            <path
   d="m 94.101,26.108 h 0.601 v -8.953 l -0.601,-0.347 z"
   style="fill-rule:nonzero;stroke:#231f20;stroke-width:0.28px;stroke-linecap:butt;stroke-miterlimit:2"
   id="path15" />
        </g>
        <g
   transform="translate(641.688,211.851)"
   id="g18">
            <rect
   x="88.702003"
   y="23.077999"
   width="0.602"
   height="9.6289997"
   style="stroke:#231f20;stroke-width:0.28px;stroke-linecap:butt;stroke-miterlimit:2"
   id="rect16" />
        </g>
        <g
   transform="translate(641.688,211.851)"
   id="g19">
            <rect
   x="91.293999"
   y="23.077999"
   width="0.602"
   height="9.6289997"
   style="stroke:#231f20;stroke-width:0.28px;stroke-linecap:butt;stroke-miterlimit:2"
   id="rect17" />
        </g>
        <g
   transform="translate(641.688,248.781)"
   id="g20">
            <path
   d="M 78.13,16.627 H 77.529 V 2.402 l 0.301,-0.173 0.3,0.173 z"
   style="fill-rule:nonzero;stroke:#231f20;stroke-width:0.28px;stroke-linecap:butt;stroke-miterlimit:2"
   id="path18" />
        </g>
        <g
   transform="translate(641.688,205.412)"
   id="g21">
            <path
   d="m 65.06,24.174 0.601,-0.348 v 14.399 l -0.301,0.173 -0.3,-0.173 z"
   style="fill-rule:nonzero;stroke:#231f20;stroke-width:0.28px;stroke-linecap:butt;stroke-miterlimit:2"
   id="path19" />
        </g>
        <g
   transform="matrix(0,-1,-1,0,742.875,285.001)"
   id="g22">
            <path
   d="m 62.441,48.296 h 0.695 l -7.373,-12.77 -0.347,0.602 z"
   style="fill-rule:nonzero;stroke:#231f20;stroke-width:0.28px;stroke-linecap:butt;stroke-miterlimit:2"
   id="path20" />
        </g>
        <g
   transform="matrix(0.499997,-0.866027,-0.866027,-0.499997,704.88,297.929)"
   id="g23">
            <rect
   x="57.528999"
   y="33.876999"
   width="0.602"
   height="11.406"
   style="stroke:#231f20;stroke-width:0.28px;stroke-linecap:butt;stroke-miterlimit:2"
   id="rect21" />
        </g>
        <g
   transform="translate(641.688,183.814)"
   id="g24">
            <path
   d="m 52.891,38.051 v 0.695 L 40.722,45.771 40.421,45.598 V 45.25 Z"
   style="fill-rule:nonzero;stroke:#231f20;stroke-width:0.28px;stroke-linecap:butt;stroke-miterlimit:2"
   id="path22" />
        </g>
        <g
   transform="translate(641.688,205.586)"
   id="g25">
            <path
   d="M 15.783,38.225 H 15.182 V 24 l 0.301,-0.174 0.3,0.174 z"
   style="fill-rule:nonzero;stroke:#231f20;stroke-width:0.28px;stroke-linecap:butt;stroke-miterlimit:2"
   id="path23" />
        </g>
    </g><g
   transform="translate(218.0187,-92.432813)"
   id="g35"
   style="clip-rule:evenodd;fill-rule:evenodd;stroke-linecap:round;stroke-linejoin:round;stroke-miterlimit:1.5">
        <g
   transform="matrix(0,0.651121,-0.651121,0,939.253,628.753)"
   id="g27">
            <rect
   x="-69.5"
   y="-69.5"
   width="139"
   height="139"
   style="fill:#6495ed"
   id="rect25" />
        </g>
        <g
   transform="matrix(0,0.651121,-0.651121,0,1030.04,628.753)"
   id="g28">
            <rect
   x="-69.5"
   y="-69.5"
   width="139"
   height="139"
   style="fill:#ff7f50"
   id="rect26" />
        </g>
        <g
   transform="matrix(0,0.651121,-0.651121,0,1120.82,628.753)"
   id="g29">
            <rect
   x="-69.5"
   y="-69.5"
   width="139"
   height="139"
   style="fill:#dc143c"
   id="rect27" />
        </g>
        <g
   transform="matrix(0,0.651121,-0.651121,0,1211.61,628.753)"
   id="g30">
            <rect
   x="-69.5"
   y="-69.5"
   width="139"
   height="139"
   style="fill:#00ffff"
   id="rect28" />
        </g>
        <g
   transform="matrix(0,0.651121,-0.651121,0,1302.39,628.753)"
   id="g31">
            <rect
   x="-69.5"
   y="-69.5"
   width="139"
   height="139"
   style="fill:#008b8b"
   id="rect29" />
        </g>
        <g
   transform="matrix(0,0.651121,-0.651121,0,1393.18,628.753)"
   id="g32">
            <rect
   x="-69.5"
   y="-69.5"
   width="139"
   height="139"
   style="fill:#b8860b"
   id="rect30" />
        </g>
        <g
   transform="matrix(0,0.651121,-0.651121,0,1483.96,628.753)"
   id="g33">
            <rect
   x="-69.5"
   y="-69.5"
   width="139"
   height="139"
   style="fill:#adff2f"
   id="rect31" />
        </g>
        <g
   transform="matrix(0,0.651121,-0.651121,0,1574.75,628.753)"
   id="g34">
            <rect
   x="-69.5"
   y="-69.5"
   width="139"
   height="139"
   style="fill:#ff69b4"
   id="rect32" />
        </g>
    </g><g
   transform="matrix(1.10682,0,0,1,191.0392,-92.432813)"
   id="g46"
   style="clip-rule:evenodd;fill-rule:evenodd;stroke-linecap:round;stroke-linejoin:round;stroke-miterlimit:1.5">
        <g
   transform="matrix(0.903491,0,0,1,37.9281,0)"
   id="g45">
            <path
   d="M 842.5,609.25 880,628 842.5,646.75 Z"
   style="fill:#231f20"
   id="path43" />
            <path
   d="M 393,709 V 628 H 850"
   style="fill:none;stroke:#231f20;stroke-width:6.25px"
   id="path44" />
        </g>
    </g><g
   transform="matrix(-1.10682,0,0,1,2757.9987,-92.432813)"
   id="g50"
   style="clip-rule:evenodd;fill-rule:evenodd;stroke-linecap:round;stroke-linejoin:round;stroke-miterlimit:1.5">
        <g
   transform="matrix(-0.903491,0,0,1,2281.3,0)"
   id="g49">
            <path
   d="M 2071.25,671.5 2090,709 2108.75,671.5 Z"
   style="fill:#231f20"
   id="path47" />
            <path
   d="M 2090,679 V 628 H 1603"
   style="fill:none;stroke:#231f20;stroke-width:6.25px"
   id="path48" />
        </g>
    </g><g
   transform="translate(-7.981303,-147.43281)"
   id="g53"
   style="clip-rule:evenodd;fill-rule:evenodd;stroke-linecap:round;stroke-linejoin:round;stroke-miterlimit:1.5">
        <text
   x="2064.75"
   y="897.41199"
   style="font-weight:700;font-size:50px;font-family:Arial-BoldMT, Arial, sans-serif;fill:#231f20"
   id="text51">Molecular property</text>
        <text
   x="2060.3899"
   y="949.04797"
   style="font-size:50px;font-family:ArialMT, Arial, sans-serif;fill:#231f20"
   id="text52"><tspan
     sodipodi:role="line"
     id="tspan62"
     x="2425.3101"
     y="949.04797">toxicity<tspan
   x="2209.49 2223.3799"
   y="949.04797 949.04797"
   id="tspan51">, </tspan>solubility<tspan
   x="2425.3101"
   y="949.04797"
   id="tspan52">,</tspan></tspan><tspan
     sodipodi:role="line"
     id="tspan63"
     x="2060.3899"
     y="1011.548">permeability, Tg, ADME</tspan></text>
        <text
   x="2181.3999"
   y="1000.68"
   style="font-size:50px;font-family:ArialMT, Arial, sans-serif;fill:#231f20"
   id="text53" />
    </g><g
   transform="translate(463.0187,-22.432813)"
   id="g54"
   style="clip-rule:evenodd;fill-rule:evenodd;stroke-linecap:round;stroke-linejoin:round;stroke-miterlimit:1.5">
        <text
   x="167.23599"
   y="531.39899"
   style="font-size:50px;font-family:ArialMT, Arial, sans-serif;fill:#231f20"
   id="text54">Calculated features</text>
    </g><g
   transform="translate(1703.0187,-22.432813)"
   id="g56"
   style="clip-rule:evenodd;fill-rule:evenodd;stroke-linecap:round;stroke-linejoin:round;stroke-miterlimit:1.5">
        <text
   x="190.85699"
   y="531.39899"
   style="font-size:50px;font-family:ArialMT, Arial, sans-serif;fill:#231f20"
   id="text56">Learning process</text>
    </g><g
   transform="translate(251.0187,-42.432813)"
   id="g58"
   style="clip-rule:evenodd;fill-rule:evenodd;stroke-linecap:round;stroke-linejoin:round;stroke-miterlimit:1.5">
        <text
   x="983.18597"
   y="494.543"
   style="font-size:50px;font-family:ArialMT, Arial, sans-serif;fill:#231f20"
   id="text58">Molecular descriptors</text>
    </g><g
   transform="translate(251.0187,-122.43281)"
   id="g59"
   style="clip-rule:evenodd;fill-rule:evenodd;stroke-linecap:round;stroke-linejoin:round;stroke-miterlimit:1.5">
        <text
   x="947.04102"
   y="494.543"
   style="font-size:50px;font-family:ArialMT, Arial, sans-serif;fill:#231f20"
   id="text59">traditional QSAR models</text>
    </g><g
   transform="translate(251.0187,447.56718)"
   id="g60"
   style="clip-rule:evenodd;fill-rule:evenodd;stroke-linecap:round;stroke-linejoin:round;stroke-miterlimit:1.5">
        
    </g><g
   transform="translate(323.0187,-57.432813)"
   id="g62"
   style="clip-rule:evenodd;fill-rule:evenodd;stroke-linecap:round;stroke-linejoin:round;stroke-miterlimit:1.5">
        <text
   x="193.16299"
   y="997.44897"
   style="font-weight:700;font-size:50px;font-family:Arial-BoldMT, Arial, sans-serif;fill:#231f20"
   id="text62">Ibuprofen</text>
    </g></svg>
